<svg xmlns="http://www.w3.org/2000/svg" fill="none" viewBox="0 0 128 128">
    <!-- Background circle -->
    <circle cx="64" cy="64" r="60" fill="#2563eb" stroke="#1d4ed8" stroke-width="2"/>
    
    <!-- Kanban columns -->
    <rect x="20" y="30" width="20" height="68" rx="4" fill="white" opacity="0.9"/>
    <rect x="54" y="30" width="20" height="68" rx="4" fill="white" opacity="0.9"/>
    <rect x="88" y="30" width="20" height="68" rx="4" fill="white" opacity="0.9"/>
    
    <!-- Task cards -->
    <!-- Column 1 -->
    <rect x="23" y="35" width="14" height="8" rx="2" fill="#2563eb"/>
    <rect x="23" y="47" width="14" height="8" rx="2" fill="#2563eb"/>
    <rect x="23" y="59" width="14" height="8" rx="2" fill="#2563eb"/>
    
    <!-- Column 2 -->
    <rect x="57" y="35" width="14" height="8" rx="2" fill="#2563eb"/>
    <rect x="57" y="47" width="14" height="8" rx="2" fill="#2563eb"/>
    
    <!-- Column 3 (Done - with checkmarks) -->
    <rect x="91" y="35" width="14" height="8" rx="2" fill="#10b981"/>
    <rect x="91" y="47" width="14" height="8" rx="2" fill="#10b981"/>
    <rect x="91" y="59" width="14" height="8" rx="2" fill="#10b981"/>
    
    <!-- Small checkmarks on done items -->
    <path d="M93 37.5 L95 39.5 L99 35.5" stroke="white" stroke-width="1.5" fill="none" stroke-linecap="round" stroke-linejoin="round"/>
    <path d="M93 49.5 L95 51.5 L99 47.5" stroke="white" stroke-width="1.5" fill="none" stroke-linecap="round" stroke-linejoin="round"/>
    <path d="M93 61.5 L95 63.5 L99 59.5" stroke="white" stroke-width="1.5" fill="none" stroke-linecap="round" stroke-linejoin="round"/>
</svg>